<svg width="168" height="50" viewBox="0 0 168 50" fill="none" xmlns="http://www.w3.org/2000/svg">
<g id="app-store-5768091a665de29ed90932b12cc1dc34 1" clip-path="url(#clip0_3_184)">
<g id="Group">
<path id="Vector" d="M163.8 0H4.2C1.8804 0 0 1.86548 0 4.16667V45.8333C0 48.1345 1.8804 50 4.2 50H163.8C166.12 50 168 48.1345 168 45.8333V4.16667C168 1.86548 166.12 0 163.8 0Z" fill="#151515"/>
<path id="Vector_2" fill-rule="evenodd" clip-rule="evenodd" d="M35.3739 14.7584C38.9355 14.7584 41.2119 18.1889 41.2119 18.1889C41.2119 18.1889 37.7399 20.0667 37.7399 24.1417C37.7399 28.9792 42.1037 30.3875 42.1037 30.3875C42.1037 30.3875 38.6597 38.5209 34.7901 38.5209C32.6145 38.5209 32.4689 37.275 29.5779 37.275C27.0663 37.275 26.2207 38.5195 24.3083 38.5195C20.6571 38.5195 15.9419 30.5889 15.9419 24.1375C15.9419 17.4389 20.7159 14.7556 23.7091 14.7556C26.3369 14.7556 27.4331 16.2973 29.5471 16.2973C31.3293 16.2973 32.7321 14.7556 35.3739 14.7556V14.7584ZM34.7607 7.92505C35.2829 11.2112 32.2911 15.2723 28.7127 15.1403C28.1877 10.9639 32.0447 8.15005 34.7579 7.92922L34.7607 7.92505Z" fill="white"/>
<g id="Group_2">
<g id="Mask group">
<mask id="mask0_3_184" style="mask-type:luminance" maskUnits="userSpaceOnUse" x="52" y="8" width="101" height="37">
<g id="Group_3">
<path id="Vector_3" d="M52.7295 8.12634H152.941V44.5097H52.7295V8.12773V8.12634Z" fill="white"/>
</g>
</mask>
<g mask="url(#mask0_3_184)">
<path id="Vector_4" fill-rule="evenodd" clip-rule="evenodd" d="M61.9611 32.6027L60.5471 28.2194C60.3973 27.7749 60.1159 26.7194 59.7043 25.0596H59.6539C59.4859 25.7735 59.2227 26.8277 58.8587 28.2221L57.4685 32.6069H61.9625L61.9611 32.6027ZM66.8513 39.6027H63.9953L62.4329 34.6721H56.9995L55.5085 39.6027H52.7295L58.1153 22.8152H61.4403L66.8513 39.6041V39.6027Z" fill="white"/>
</g>
</g>
<g id="Mask group_2">
<mask id="mask1_3_184" style="mask-type:luminance" maskUnits="userSpaceOnUse" x="52" y="8" width="101" height="37">
<g id="Group_4">
<path id="Vector_5" d="M52.7295 8.12634H152.941V44.5097H52.7295" fill="white"/>
</g>
</mask>
<g mask="url(#mask1_3_184)">
<path id="Vector_6" fill-rule="evenodd" clip-rule="evenodd" d="M77.9434 33.5C77.9434 32.3222 77.6802 31.35 77.151 30.5861C76.5714 29.7902 75.793 29.3916 74.8172 29.3916C74.1564 29.3916 73.5572 29.6138 73.0182 30.0513C72.4791 30.4934 72.1074 31.1041 71.964 31.7833C71.88 32.1166 71.838 32.3861 71.838 32.6027V34.6222C71.838 35.5027 72.104 36.2472 72.6444 36.8541C73.182 37.4597 73.8806 37.7638 74.7402 37.7638C75.7482 37.7638 76.535 37.3722 77.0978 36.5944C77.6606 35.8125 77.942 34.7833 77.942 33.5041M80.672 33.4069C80.672 35.4652 80.1162 37.0916 79.0018 38.2875C78.0036 39.3486 76.7618 39.8805 75.2834 39.8805C73.6874 39.8805 72.5394 39.3083 71.8394 38.1625V44.5152H69.1654V31.4819C69.1654 30.1861 69.1318 28.8597 69.0674 27.5H71.4236L71.5734 29.4222H71.6238C72.5198 27.975 73.8736 27.2513 75.6936 27.2513C77.116 27.2513 78.3032 27.8166 79.2538 28.9458C80.203 30.0777 80.679 31.5638 80.679 33.4069" fill="white"/>
</g>
</g>
<g id="Mask group_3">
<mask id="mask2_3_184" style="mask-type:luminance" maskUnits="userSpaceOnUse" x="52" y="8" width="101" height="37">
<g id="Group_5">
<path id="Vector_7" d="M52.7295 8.12634H152.941V44.5097H52.7295" fill="white"/>
</g>
</mask>
<g mask="url(#mask2_3_184)">
<path id="Vector_8" fill-rule="evenodd" clip-rule="evenodd" d="M91.8174 33.5C91.8174 32.3222 91.5514 31.35 91.0194 30.5861C90.4412 29.7902 89.6656 29.3916 88.6898 29.3916C88.0276 29.3916 87.4298 29.6138 86.8894 30.0513C86.3503 30.4932 85.9789 31.1041 85.8366 31.7833C85.7526 32.1166 85.7106 32.3861 85.7106 32.6027V34.6222C85.7106 35.5027 85.9794 36.2472 86.5156 36.8541C87.0532 37.4583 87.7532 37.7638 88.6156 37.7638C89.6236 37.7638 90.4118 37.3722 90.9718 36.5944C91.5318 35.8125 91.816 34.7833 91.816 33.5041M94.546 33.4069C94.546 35.4652 93.986 37.0916 92.873 38.2875C91.8734 39.3486 90.633 39.8805 89.1546 39.8805C87.5544 39.8805 86.4064 39.3083 85.7106 38.1625V44.5152H83.0282V31.4819C83.0282 30.1861 82.9946 28.8597 82.9302 27.5H85.2864L85.4362 29.4222H85.4866C86.3798 27.975 87.7364 27.2513 89.5578 27.2513C90.9788 27.2513 92.1674 27.8166 93.1194 28.9458C94.0672 30.0777 94.546 31.5638 94.546 33.4069Z" fill="white"/>
</g>
</g>
<path id="Vector_9" fill-rule="evenodd" clip-rule="evenodd" d="M110.06 34.8944C110.06 36.325 109.56 37.4861 108.571 38.3833C107.482 39.3597 105.963 39.85 104.014 39.85C102.215 39.85 100.772 39.5 99.6827 38.8042L100.303 36.5611C101.479 37.2583 102.773 37.6069 104.177 37.6069C105.188 37.6069 105.973 37.3805 106.534 36.9236C107.099 36.4653 107.381 35.8569 107.381 35.0944C107.381 34.4139 107.148 33.8417 106.686 33.3764C106.221 32.9125 105.454 32.4792 104.378 32.0819C101.447 30.9847 99.9823 29.3833 99.9823 27.2736C99.9823 25.8958 100.5 24.7694 101.532 23.8847C102.565 23.0069 103.936 22.5653 105.64 22.5653C107.166 22.5653 108.433 22.8319 109.441 23.3625L108.769 25.5569C107.82 25.0403 106.75 24.7833 105.554 24.7833C104.607 24.7833 103.865 25.0167 103.334 25.4819C102.889 25.8958 102.662 26.4014 102.662 27.0028C102.662 27.6653 102.92 28.2153 103.432 28.6458C103.88 29.043 104.692 29.4764 105.864 29.9403C107.306 30.5236 108.363 31.2042 109.042 31.9819C109.724 32.7625 110.064 33.7347 110.064 34.8944M118.945 29.5194H115.991V35.3944C115.991 36.8917 116.512 37.6375 117.555 37.6375C118.035 37.6375 118.434 37.5958 118.745 37.5125L118.821 39.5542C118.294 39.7528 117.6 39.8528 116.739 39.8528C115.679 39.8528 114.853 39.5278 114.257 38.8805C113.66 38.2305 113.361 37.1444 113.361 35.6167V29.5097H111.602V27.4958H113.362V25.2792L115.994 24.4819V27.4958H118.948V29.518L118.945 29.5194ZM129.468 33.5153C129.468 32.4069 129.23 31.4555 128.751 30.6597C128.188 29.6986 127.383 29.218 126.343 29.218C125.269 29.218 124.445 29.6986 123.886 30.6597C123.404 31.4555 123.165 32.4236 123.165 33.5653C123.165 34.6764 123.403 35.6292 123.886 36.4236C124.466 37.3847 125.272 37.8653 126.322 37.8653C127.344 37.8653 128.146 37.375 128.73 36.3986C129.22 35.5861 129.468 34.6264 129.468 33.5153ZM132.247 33.4542C132.247 35.3153 131.715 36.843 130.656 38.0375C129.546 39.2667 128.075 39.8805 126.238 39.8805C124.466 39.8805 123.056 39.2903 122.004 38.1139C120.957 36.9333 120.431 35.4472 120.431 33.6555C120.431 31.7805 120.974 30.243 122.055 29.0486C123.14 27.8542 124.6 27.2542 126.437 27.2542C128.206 27.2542 129.629 27.8458 130.704 29.0222C131.733 30.1667 132.244 31.643 132.244 33.4528M140.96 29.8667C140.681 29.8156 140.398 29.7905 140.115 29.7917C139.171 29.7917 138.443 30.15 137.931 30.8667C137.483 31.4972 137.262 32.2944 137.262 33.2555V39.6097H134.582V31.3139C134.582 29.9208 134.554 28.6472 134.504 27.5028H136.837L136.935 29.8194H137.01C137.294 29.025 137.738 28.3833 138.349 27.9028C138.907 27.483 139.587 27.2552 140.287 27.2542C140.532 27.2542 140.755 27.2708 140.953 27.3028L140.956 29.8694L140.96 29.8667ZM150.388 32.2833C150.408 31.4847 150.231 30.7972 149.87 30.2139C149.404 29.4667 148.69 29.093 147.734 29.093C146.856 29.093 146.143 29.4569 145.6 30.1903C145.155 30.7708 144.889 31.468 144.808 32.2805L150.388 32.2833ZM152.944 32.9805C152.944 33.4625 152.912 33.8694 152.846 34.2028H144.808C144.836 35.3972 145.228 36.3111 145.972 36.9417C146.65 37.5028 147.526 37.7847 148.602 37.7847C149.792 37.7847 150.878 37.5972 151.855 37.2153L152.275 39.0805C151.134 39.5805 149.783 39.8305 148.232 39.8305C146.362 39.8305 144.893 39.2778 143.825 38.175C142.761 37.0708 142.225 35.5861 142.225 33.7278C142.225 31.9042 142.72 30.3847 143.714 29.1722C144.756 27.8778 146.164 27.2305 147.932 27.2305C149.671 27.2305 150.987 27.8778 151.88 29.1722C152.587 30.1972 152.944 31.468 152.944 32.9778V32.9805ZM58.2665 13.3667L57.5707 11.2139C57.4979 10.9917 57.3635 10.4778 57.1563 9.65832H57.1311C57.0471 10.0111 56.9239 10.5264 56.7391 11.2139L56.0573 13.3667H58.2665ZM60.6675 16.8042H59.2675L58.4975 14.3805H55.8263L55.0955 16.8055H53.7263L56.3723 8.55554H58.0075L60.6675 16.8042ZM67.2895 10.8569L65.0425 16.8042H63.7615L61.5915 10.8569H63.0055L64.0191 14.0028C64.1899 14.5305 64.3355 15.0305 64.4447 15.5069H64.4825C64.5805 15.0792 64.7261 14.5764 64.9081 14.0028L65.9063 10.8555H67.2853L67.2895 10.8569ZM71.8815 13.843C70.4199 13.843 69.6877 14.1986 69.6877 15.0417C69.6877 15.6667 70.0657 15.9722 70.5907 15.9722C71.2627 15.9722 71.8829 15.4583 71.8829 14.7611V13.8444L71.8815 13.843ZM72.0677 16.8055L71.9697 16.1208H71.9319C71.5301 16.6722 70.9449 16.9403 70.2001 16.9403C69.1361 16.9403 68.3801 16.1944 68.3801 15.1903C68.3801 13.7208 69.6485 12.9625 71.8437 12.9625V12.8514C71.8437 12.068 71.4293 11.6764 70.6117 11.6764C70.0627 11.6666 69.5233 11.8204 69.0633 12.118L68.7945 11.2486C69.3447 10.9055 70.0265 10.7347 70.8329 10.7347C72.3813 10.7347 73.1625 11.5542 73.1625 13.1958V15.3847C73.1625 15.9875 73.1877 16.4542 73.2465 16.8069H72.0635L72.0677 16.8055Z" fill="white"/>
<g id="Mask group_4">
<mask id="mask3_3_184" style="mask-type:luminance" maskUnits="userSpaceOnUse" x="52" y="8" width="101" height="37">
<g id="Group_6">
<path id="Vector_10" d="M52.7295 8.12634H152.941V44.5097H52.7295V8.12773V8.12634Z" fill="white"/>
</g>
</mask>
<g mask="url(#mask3_3_184)">
<path id="Vector_11" fill-rule="evenodd" clip-rule="evenodd" d="M76.7843 16.8069H75.4683V10.8569H76.7843V16.8069ZM76.1011 9.87631C75.9967 9.87654 75.8932 9.85596 75.797 9.81578C75.7007 9.7756 75.6136 9.71665 75.5407 9.64243C75.4679 9.5682 75.4108 9.48021 75.3728 9.38368C75.3349 9.28715 75.3169 9.18404 75.3199 9.08048C75.3199 8.63048 75.6741 8.29854 76.1263 8.29854C76.5771 8.29854 76.9425 8.63187 76.9299 9.08326C76.9299 9.56104 76.5897 9.87909 76.1011 9.87909V9.87631ZM80.4411 16.8069H79.1251V8.12631H80.4411V16.8069ZM85.8591 13.843C84.3933 13.843 83.6611 14.1985 83.6611 15.0416C83.6611 15.6666 84.0391 15.9721 84.5641 15.9721C85.2319 15.9721 85.8549 15.4583 85.8549 14.761V13.8444L85.8591 13.843ZM86.0411 16.8055L85.9431 16.1208H85.9067C85.5035 16.6721 84.9183 16.9402 84.1735 16.9402C83.1137 16.9402 82.3563 16.1944 82.3563 15.1902C82.3563 13.7208 83.6247 12.9624 85.8213 12.9624V12.8513C85.8213 12.068 85.4055 11.6763 84.5893 11.6763C84.0013 11.6763 83.4903 11.8235 83.0409 12.118L82.7749 11.2471C83.3237 10.9069 84.0069 10.7333 84.8119 10.7333C86.3603 10.7333 87.1429 11.5527 87.1429 13.1971V15.3846C87.1429 15.986 87.1667 16.4513 87.2269 16.8055H86.0411ZM92.2095 11.7735C91.4507 11.7735 90.7563 12.4346 90.7563 13.3527V14.3944C90.7563 15.2138 91.3793 15.8874 92.1843 15.8874C93.1727 15.8874 93.7593 15.0791 93.7593 13.7944C93.7593 12.5944 93.1475 11.7735 92.2081 11.7735M92.4741 16.9402C91.6341 16.9402 91.0111 16.5846 90.6079 15.8874H90.5827L90.5057 16.8041H89.3857C89.4193 16.3291 89.4319 15.7902 89.4319 15.2027V8.12354H90.7507V11.7235H90.7745C91.1637 11.0624 91.7965 10.7319 92.6645 10.7319C94.0925 10.7319 95.0921 11.9583 95.0921 13.7458C95.0921 15.593 93.9819 16.9402 92.4699 16.9402M98.3639 16.8069H97.0479V8.12631H98.3639V16.8069ZM104.325 13.2069C104.325 12.2902 103.863 11.6402 103.02 11.6402C102.262 11.6402 101.668 12.3013 101.578 13.2069H104.325ZM105.533 14.1485H101.578C101.606 15.2763 102.348 15.9124 103.444 15.9124C104.032 15.9124 104.567 15.8124 105.041 15.6305L105.246 16.5471C104.686 16.793 104.028 16.9152 103.258 16.9152C101.406 16.9152 100.309 15.7402 100.309 13.9152C100.309 12.093 101.431 10.7208 103.113 10.7208C104.62 10.7208 105.577 11.8485 105.577 13.5499C105.58 13.7791 105.567 13.9874 105.531 14.1471L105.533 14.1485ZM113.569 11.6999C112.617 11.6999 112.006 12.593 112.006 13.8416C112.006 15.0638 112.631 15.9583 113.56 15.9583C114.484 15.9583 115.106 15.0027 115.106 13.8138C115.106 12.6055 114.496 11.6985 113.571 11.6985M113.517 16.9402C111.786 16.9402 110.662 15.643 110.662 13.8805C110.662 12.0444 111.81 10.7333 113.618 10.7333C115.322 10.7333 116.471 11.9694 116.471 13.786C116.471 15.6471 115.288 16.943 113.517 16.943M123.556 16.8083H122.24V13.3916C122.24 12.3402 121.836 11.8124 121.042 11.8124C120.263 11.8124 119.724 12.486 119.724 13.2708V16.8083H118.408V12.5583C118.408 12.0333 118.394 11.4694 118.359 10.8583H119.518L119.579 11.7749H119.616C119.966 11.136 120.69 10.7333 121.492 10.7333C122.738 10.7333 123.554 11.6874 123.554 13.2416V16.8055L123.556 16.8083ZM132.172 11.8499H130.723V14.7388C130.723 15.4749 130.978 15.8416 131.489 15.8416C131.722 15.8416 131.918 15.8166 132.077 15.7805L132.112 16.7846C131.856 16.8819 131.513 16.9319 131.09 16.9319C130.05 16.9319 129.431 16.3569 129.431 14.8485V11.8485H128.567V10.8569H129.431V9.76659L130.723 9.37354V10.8569H132.172V11.8471V11.8499ZM139.149 16.8083H137.83V13.4194C137.83 12.3527 137.427 11.8138 136.634 11.8138C135.951 11.8138 135.318 12.2791 135.318 13.2221V16.811H133.999V8.12631H135.318V11.6999H135.346C135.758 11.0513 136.354 10.7333 137.124 10.7333C138.382 10.7333 139.149 11.7152 139.149 13.2694V16.8083ZM144.672 13.211C144.672 12.2944 144.21 11.6416 143.367 11.6416C142.611 11.6416 142.016 12.3041 141.929 13.211H144.673H144.672ZM145.88 14.1513H141.926C141.951 15.2791 142.693 15.9152 143.791 15.9152C144.379 15.9152 144.914 15.8152 145.387 15.6333L145.594 16.5499C145.034 16.7958 144.376 16.918 143.606 16.918C141.751 16.918 140.655 15.743 140.655 13.918C140.655 12.0958 141.775 10.7235 143.459 10.7235C144.971 10.7235 145.923 11.8513 145.923 13.5527C145.929 13.7819 145.916 13.9902 145.881 14.1499L145.88 14.1513Z" fill="white"/>
</g>
</g>
</g>
</g>
</g>
<defs>
<clipPath id="clip0_3_184">
<rect width="168" height="50" fill="white"/>
</clipPath>
</defs>
</svg>
